<?xml version="1.0" standalone="no"?>
<!DOCTYPE svg PUBLIC "-//W3C//DTD SVG 20010904//EN"
 "http://www.w3.org/TR/2001/REC-SVG-20010904/DTD/svg10.dtd">
<svg version="1.0" xmlns="http://www.w3.org/2000/svg"
 width="573.000000pt" height="573.000000pt" viewBox="0 0 573.000000 573.000000"
 preserveAspectRatio="xMidYMid meet">
<metadata>
Created by potrace 1.14, written by Peter Selinger 2001-2017
</metadata>
<g transform="translate(0.000000,573.000000) scale(0.100000,-0.100000)"
fill="#000000" stroke="none">
<path d="M240 2841 c0 -2388 1 -2629 16 -2635 9 -3 1190 -6 2624 -6 2571 0
2609 0 2620 19 7 14 9 843 8 2633 l-3 2613 -2632 3 -2633 2 0 -2629z m1434
2581 c3 -5 -1 -251 -9 -548 -17 -634 -20 -813 -14 -819 3 -2 302 4 666 13 364
9 664 14 666 12 5 -7 -13 -1192 -18 -1207 -4 -10 -281 -13 -1345 -13 l-1340 0
0 1278 c0 703 3 1282 7 1285 9 10 1381 8 1387 -1z m1329 -157 c-1 -88 -5 -379
-9 -646 l-6 -486 -262 -7 c-143 -3 -433 -11 -644 -17 -211 -6 -385 -9 -386 -7
-2 1 1 185 7 408 7 317 12 408 23 421 8 8 19 31 26 50 13 37 93 162 179 279
31 41 54 81 52 88 -15 41 -66 -15 -200 -217 l-63 -95 0 160 c0 87 3 176 6 197
l7 37 636 -2 636 -3 -2 -160z m2457 -1108 l0 -1274 -357 -7 c-197 -3 -463 -9
-591 -13 l-232 -6 5 414 c3 228 7 509 10 624 3 116 1 215 -3 221 -5 7 -50 8
-152 3 -80 -5 -363 -10 -628 -11 l-484 -3 6 60 c3 33 8 328 12 655 3 327 8
598 11 603 2 4 544 7 1204 7 l1199 0 0 -1273z m-1210 -125 c0 -20 -7 -516 -15
-1102 -8 -586 -15 -1167 -15 -1292 0 -218 1 -228 19 -228 28 0 29 33 36 760 4
349 8 636 10 638 5 5 1158 29 1168 25 4 -3 7 -584 7 -1294 l0 -1289 -1251 0
-1251 0 6 92 c3 51 9 291 12 534 l7 441 165 6 c91 4 369 7 618 7 451 0 485 3
455 33 -8 8 -358 10 -1295 8 l-1283 -3 -7 509 c-3 279 -9 606 -12 726 l-7 217
691 0 c542 0 693 3 699 13 7 12 20 602 22 1027 l1 205 610 2 610 3 0 -38z
m-2675 -1254 c2 -18 6 -325 9 -683 7 -739 10 -795 36 -795 10 0 20 4 22 10 2
6 233 10 648 10 l645 0 -2 -87 c-1 -49 -5 -289 -8 -536 l-7 -447 -1317 2
-1316 3 -3 1270 c-1 699 0 1275 2 1280 2 7 225 9 646 8 l643 -2 2 -33z"/>
<path d="M917 5170 c-47 -15 -94 -57 -117 -106 -27 -55 -28 -108 -5 -305 11
-100 15 -260 17 -634 2 -548 4 -577 59 -646 17 -21 55 -50 87 -66 52 -26 66
-28 162 -26 371 6 684 4 807 -5 87 -7 182 -8 247 -2 92 7 111 12 141 34 132
101 104 275 -53 330 -27 9 -82 12 -197 9 -109 -3 -185 0 -240 9 -61 11 -144
12 -355 8 -151 -4 -276 -6 -277 -6 0 1 -3 204 -6 451 -3 248 -10 493 -16 545
-6 52 -15 141 -20 198 -9 112 -18 132 -82 184 -38 31 -105 43 -152 28z"/>
<path d="M2111 5228 c-27 -35 -84 -103 -126 -153 -121 -143 -233 -314 -220
-335 14 -22 36 -7 70 51 53 86 146 210 233 309 88 100 126 156 118 176 -9 24
-23 16 -75 -48z"/>
<path d="M2402 5229 c-84 -76 -114 -109 -263 -284 -65 -77 -155 -183 -200
-235 -118 -138 -171 -215 -173 -252 -2 -45 20 -45 43 -1 25 50 110 160 231
298 52 61 140 163 194 228 54 65 139 155 187 199 49 45 89 88 89 95 0 29 -44
10 -108 -48z"/>
<path d="M2614 5077 c-32 -34 -108 -118 -169 -186 -60 -69 -148 -168 -195
-220 -226 -253 -290 -332 -290 -356 0 -33 33 -34 47 -2 6 13 33 47 60 77 28
30 83 94 124 141 145 168 375 425 446 500 40 41 73 83 73 92 0 34 -38 16 -96
-46z"/>
<path d="M2709 4913 c-14 -16 -51 -64 -84 -107 -65 -89 -184 -225 -320 -366
-96 -99 -151 -180 -141 -205 10 -28 34 -15 63 34 15 28 66 90 113 138 119 124
256 281 341 393 41 52 80 100 88 106 8 6 11 16 7 22 -12 20 -41 13 -67 -15z"/>
<path d="M2789 4598 c-185 -226 -226 -286 -215 -314 9 -24 25 -16 53 29 14 23
60 84 102 136 154 191 171 214 171 232 0 38 -29 16 -111 -83z"/>
<path d="M3700 3660 c0 -5 5 -10 11 -10 5 0 7 5 4 10 -3 6 -8 10 -11 10 -2 0
-4 -4 -4 -10z"/>
<path d="M2380 2416 c0 -2 7 -7 16 -10 8 -3 12 -2 9 4 -6 10 -25 14 -25 6z"/>
<path d="M2488 2403 c7 -3 16 -2 19 1 4 3 -2 6 -13 5 -11 0 -14 -3 -6 -6z"/>
<path d="M4817 2400 c-45 -13 -95 -57 -119 -103 -21 -41 -22 -53 -25 -487 -2
-245 -7 -496 -11 -559 l-7 -114 -71 2 c-40 1 -109 -3 -155 -9 -48 -7 -223 -13
-409 -14 -357 -1 -353 -1 -416 -65 -64 -66 -69 -157 -11 -233 56 -73 83 -78
395 -77 147 1 301 3 342 5 41 2 188 7 325 11 158 5 257 12 270 20 29 16 70 63
87 98 19 38 42 762 37 1146 l-4 256 -28 42 c-20 29 -44 50 -80 67 -55 25 -75
27 -120 14z"/>
<path d="M2225 2309 c-4 -6 -5 -12 -2 -15 2 -3 7 2 10 11 7 17 1 20 -8 4z"/>
</g>
</svg>
